<mxfile host="app.diagrams.net" modified="2023-05-18T18:58:36.749Z" agent="Mozilla/5.0 (Windows NT 10.0; Win64; x64; rv:109.0) Gecko/20100101 Firefox/112.0" etag="LNTiFQAQSbE-JENbDIQ2" version="21.3.2" type="device">
  <diagram name="Page-1" id="7LJyAxoPUqkwg59JbYgf">
    <mxGraphModel dx="1434" dy="782" grid="1" gridSize="10" guides="1" tooltips="1" connect="1" arrows="1" fold="1" page="1" pageScale="1" pageWidth="827" pageHeight="1169" background="#ffffff" math="0" shadow="0">
      <root>
        <mxCell id="0" />
        <mxCell id="1" parent="0" />
        <mxCell id="IhYrTq_kV8VDLxUvGRr1-8" style="edgeStyle=orthogonalEdgeStyle;rounded=0;orthogonalLoop=1;jettySize=auto;html=1;exitX=0.5;exitY=1;exitDx=0;exitDy=0;exitPerimeter=0;entryX=0.5;entryY=0;entryDx=0;entryDy=0;entryPerimeter=0;strokeColor=#030303;" parent="1" source="IhYrTq_kV8VDLxUvGRr1-3" edge="1">
          <mxGeometry relative="1" as="geometry">
            <mxPoint x="400" y="230" as="targetPoint" />
          </mxGeometry>
        </mxCell>
        <mxCell id="IhYrTq_kV8VDLxUvGRr1-3" value="" style="verticalLabelPosition=bottom;verticalAlign=top;html=1;shape=mxgraph.flowchart.on-page_reference;fillColor=#030303;" parent="1" vertex="1">
          <mxGeometry x="370" y="140" width="60" height="60" as="geometry" />
        </mxCell>
        <mxCell id="IhYrTq_kV8VDLxUvGRr1-12" style="edgeStyle=orthogonalEdgeStyle;rounded=0;orthogonalLoop=1;jettySize=auto;html=1;exitX=0.5;exitY=1;exitDx=0;exitDy=0;entryX=0.5;entryY=0;entryDx=0;entryDy=0;entryPerimeter=0;" parent="1" source="IhYrTq_kV8VDLxUvGRr1-10" target="IhYrTq_kV8VDLxUvGRr1-11" edge="1">
          <mxGeometry relative="1" as="geometry" />
        </mxCell>
        <mxCell id="IhYrTq_kV8VDLxUvGRr1-10" value="Open Application" style="rounded=1;whiteSpace=wrap;html=1;absoluteArcSize=1;arcSize=14;strokeWidth=2;" parent="1" vertex="1">
          <mxGeometry x="330" y="230" width="140" height="70" as="geometry" />
        </mxCell>
        <mxCell id="DkXCeMKWjh5OQ_WfoUJH-2" style="edgeStyle=orthogonalEdgeStyle;rounded=0;orthogonalLoop=1;jettySize=auto;html=1;exitX=0.5;exitY=1;exitDx=0;exitDy=0;exitPerimeter=0;entryX=0.5;entryY=0;entryDx=0;entryDy=0;" edge="1" parent="1" source="IhYrTq_kV8VDLxUvGRr1-11" target="DkXCeMKWjh5OQ_WfoUJH-1">
          <mxGeometry relative="1" as="geometry" />
        </mxCell>
        <mxCell id="DkXCeMKWjh5OQ_WfoUJH-27" value="&lt;div&gt;Quit&lt;/div&gt;" style="edgeStyle=orthogonalEdgeStyle;rounded=0;orthogonalLoop=1;jettySize=auto;html=1;exitX=1;exitY=0.5;exitDx=0;exitDy=0;exitPerimeter=0;" edge="1" parent="1" source="IhYrTq_kV8VDLxUvGRr1-11">
          <mxGeometry relative="1" as="geometry">
            <mxPoint x="520" y="380" as="targetPoint" />
          </mxGeometry>
        </mxCell>
        <mxCell id="IhYrTq_kV8VDLxUvGRr1-11" value="Main Menu" style="strokeWidth=2;html=1;shape=mxgraph.flowchart.decision;whiteSpace=wrap;" parent="1" vertex="1">
          <mxGeometry x="350" y="330" width="100" height="100" as="geometry" />
        </mxCell>
        <mxCell id="DkXCeMKWjh5OQ_WfoUJH-1" value="Start Game" style="rounded=1;whiteSpace=wrap;html=1;absoluteArcSize=1;arcSize=14;strokeWidth=2;" vertex="1" parent="1">
          <mxGeometry x="340" y="520" width="120" height="40" as="geometry" />
        </mxCell>
        <mxCell id="DkXCeMKWjh5OQ_WfoUJH-3" value="Choose Difficulty" style="rounded=1;whiteSpace=wrap;html=1;absoluteArcSize=1;arcSize=14;strokeWidth=2;" vertex="1" parent="1">
          <mxGeometry x="340" y="450" width="120" height="40" as="geometry" />
        </mxCell>
        <mxCell id="DkXCeMKWjh5OQ_WfoUJH-16" style="edgeStyle=orthogonalEdgeStyle;rounded=0;orthogonalLoop=1;jettySize=auto;html=1;exitX=0.5;exitY=0;exitDx=0;exitDy=0;entryX=0;entryY=0.5;entryDx=0;entryDy=0;" edge="1" parent="1" source="DkXCeMKWjh5OQ_WfoUJH-4" target="DkXCeMKWjh5OQ_WfoUJH-12">
          <mxGeometry relative="1" as="geometry" />
        </mxCell>
        <mxCell id="DkXCeMKWjh5OQ_WfoUJH-4" value="&lt;div&gt;Next Word&lt;/div&gt;" style="rounded=1;whiteSpace=wrap;html=1;absoluteArcSize=1;arcSize=14;strokeWidth=2;" vertex="1" parent="1">
          <mxGeometry x="210" y="703" width="120" height="40" as="geometry" />
        </mxCell>
        <mxCell id="DkXCeMKWjh5OQ_WfoUJH-9" value="&lt;div&gt;Lose Game&lt;/div&gt;" style="edgeStyle=orthogonalEdgeStyle;rounded=0;orthogonalLoop=1;jettySize=auto;html=1;exitX=1;exitY=0.5;exitDx=0;exitDy=0;exitPerimeter=0;entryX=0;entryY=0.5;entryDx=0;entryDy=0;entryPerimeter=0;" edge="1" parent="1" source="DkXCeMKWjh5OQ_WfoUJH-6" target="DkXCeMKWjh5OQ_WfoUJH-8">
          <mxGeometry relative="1" as="geometry" />
        </mxCell>
        <mxCell id="DkXCeMKWjh5OQ_WfoUJH-11" value="Win Game" style="edgeStyle=orthogonalEdgeStyle;rounded=0;orthogonalLoop=1;jettySize=auto;html=1;exitX=0.5;exitY=1;exitDx=0;exitDy=0;exitPerimeter=0;entryX=0.5;entryY=0;entryDx=0;entryDy=0;entryPerimeter=0;" edge="1" parent="1" source="DkXCeMKWjh5OQ_WfoUJH-6" target="DkXCeMKWjh5OQ_WfoUJH-10">
          <mxGeometry x="-0.2766" relative="1" as="geometry">
            <mxPoint as="offset" />
          </mxGeometry>
        </mxCell>
        <mxCell id="DkXCeMKWjh5OQ_WfoUJH-6" value="" style="strokeWidth=2;html=1;shape=mxgraph.flowchart.decision;whiteSpace=wrap;" vertex="1" parent="1">
          <mxGeometry x="350" y="663" width="100" height="100" as="geometry" />
        </mxCell>
        <mxCell id="DkXCeMKWjh5OQ_WfoUJH-18" style="edgeStyle=orthogonalEdgeStyle;rounded=0;orthogonalLoop=1;jettySize=auto;html=1;exitX=0.5;exitY=0;exitDx=0;exitDy=0;exitPerimeter=0;entryX=1;entryY=0.5;entryDx=0;entryDy=0;" edge="1" parent="1" source="DkXCeMKWjh5OQ_WfoUJH-8" target="DkXCeMKWjh5OQ_WfoUJH-3">
          <mxGeometry relative="1" as="geometry" />
        </mxCell>
        <mxCell id="DkXCeMKWjh5OQ_WfoUJH-19" value="&lt;div&gt;Play Again&lt;/div&gt;" style="edgeLabel;html=1;align=center;verticalAlign=middle;resizable=0;points=[];" vertex="1" connectable="0" parent="DkXCeMKWjh5OQ_WfoUJH-18">
          <mxGeometry x="-0.7471" y="-3" relative="1" as="geometry">
            <mxPoint x="-3" y="16" as="offset" />
          </mxGeometry>
        </mxCell>
        <mxCell id="DkXCeMKWjh5OQ_WfoUJH-21" style="edgeStyle=orthogonalEdgeStyle;rounded=0;orthogonalLoop=1;jettySize=auto;html=1;exitX=0.5;exitY=1;exitDx=0;exitDy=0;exitPerimeter=0;" edge="1" parent="1" source="DkXCeMKWjh5OQ_WfoUJH-8">
          <mxGeometry relative="1" as="geometry">
            <mxPoint x="400" y="950" as="targetPoint" />
            <Array as="points">
              <mxPoint x="600" y="950" />
              <mxPoint x="400" y="950" />
            </Array>
          </mxGeometry>
        </mxCell>
        <mxCell id="DkXCeMKWjh5OQ_WfoUJH-22" value="Main Menu" style="edgeLabel;html=1;align=center;verticalAlign=middle;resizable=0;points=[];" vertex="1" connectable="0" parent="DkXCeMKWjh5OQ_WfoUJH-21">
          <mxGeometry x="-0.7056" y="1" relative="1" as="geometry">
            <mxPoint x="-1" y="-42" as="offset" />
          </mxGeometry>
        </mxCell>
        <mxCell id="DkXCeMKWjh5OQ_WfoUJH-8" value="" style="strokeWidth=2;html=1;shape=mxgraph.flowchart.decision;whiteSpace=wrap;" vertex="1" parent="1">
          <mxGeometry x="550" y="663" width="100" height="100" as="geometry" />
        </mxCell>
        <mxCell id="DkXCeMKWjh5OQ_WfoUJH-15" style="edgeStyle=orthogonalEdgeStyle;rounded=0;orthogonalLoop=1;jettySize=auto;html=1;exitX=0;exitY=0.5;exitDx=0;exitDy=0;exitPerimeter=0;entryX=0.5;entryY=1;entryDx=0;entryDy=0;" edge="1" parent="1" source="DkXCeMKWjh5OQ_WfoUJH-10" target="DkXCeMKWjh5OQ_WfoUJH-4">
          <mxGeometry relative="1" as="geometry" />
        </mxCell>
        <mxCell id="DkXCeMKWjh5OQ_WfoUJH-24" value="&lt;div&gt;Keep Playing&lt;/div&gt;" style="edgeLabel;html=1;align=center;verticalAlign=middle;resizable=0;points=[];" vertex="1" connectable="0" parent="DkXCeMKWjh5OQ_WfoUJH-15">
          <mxGeometry x="-0.4095" relative="1" as="geometry">
            <mxPoint as="offset" />
          </mxGeometry>
        </mxCell>
        <mxCell id="DkXCeMKWjh5OQ_WfoUJH-17" style="edgeStyle=orthogonalEdgeStyle;rounded=0;orthogonalLoop=1;jettySize=auto;html=1;exitX=0.5;exitY=1;exitDx=0;exitDy=0;exitPerimeter=0;entryX=0;entryY=0.5;entryDx=0;entryDy=0;entryPerimeter=0;" edge="1" parent="1" source="DkXCeMKWjh5OQ_WfoUJH-10" target="IhYrTq_kV8VDLxUvGRr1-11">
          <mxGeometry relative="1" as="geometry">
            <Array as="points">
              <mxPoint x="400" y="950" />
              <mxPoint x="170" y="950" />
              <mxPoint x="170" y="380" />
            </Array>
          </mxGeometry>
        </mxCell>
        <mxCell id="DkXCeMKWjh5OQ_WfoUJH-23" value="&lt;div&gt;Main Menu&lt;/div&gt;" style="edgeLabel;html=1;align=center;verticalAlign=middle;resizable=0;points=[];" vertex="1" connectable="0" parent="DkXCeMKWjh5OQ_WfoUJH-17">
          <mxGeometry x="-0.9727" y="2" relative="1" as="geometry">
            <mxPoint as="offset" />
          </mxGeometry>
        </mxCell>
        <mxCell id="DkXCeMKWjh5OQ_WfoUJH-10" value="" style="strokeWidth=2;html=1;shape=mxgraph.flowchart.decision;whiteSpace=wrap;" vertex="1" parent="1">
          <mxGeometry x="350" y="810" width="100" height="100" as="geometry" />
        </mxCell>
        <mxCell id="DkXCeMKWjh5OQ_WfoUJH-13" value="" style="edgeStyle=orthogonalEdgeStyle;rounded=0;orthogonalLoop=1;jettySize=auto;html=1;exitX=0.5;exitY=1;exitDx=0;exitDy=0;entryX=0.5;entryY=0;entryDx=0;entryDy=0;" edge="1" parent="1" source="DkXCeMKWjh5OQ_WfoUJH-1" target="DkXCeMKWjh5OQ_WfoUJH-12">
          <mxGeometry relative="1" as="geometry">
            <mxPoint x="400" y="620" as="sourcePoint" />
            <mxPoint x="270" y="760" as="targetPoint" />
          </mxGeometry>
        </mxCell>
        <mxCell id="DkXCeMKWjh5OQ_WfoUJH-14" style="edgeStyle=orthogonalEdgeStyle;rounded=0;orthogonalLoop=1;jettySize=auto;html=1;exitX=0.5;exitY=1;exitDx=0;exitDy=0;entryX=0.5;entryY=0;entryDx=0;entryDy=0;entryPerimeter=0;" edge="1" parent="1" source="DkXCeMKWjh5OQ_WfoUJH-12" target="DkXCeMKWjh5OQ_WfoUJH-6">
          <mxGeometry relative="1" as="geometry" />
        </mxCell>
        <mxCell id="DkXCeMKWjh5OQ_WfoUJH-12" value="Play Game" style="rounded=1;whiteSpace=wrap;html=1;absoluteArcSize=1;arcSize=14;strokeWidth=2;" vertex="1" parent="1">
          <mxGeometry x="340" y="590" width="120" height="40" as="geometry" />
        </mxCell>
        <mxCell id="DkXCeMKWjh5OQ_WfoUJH-25" value="" style="ellipse;html=1;shape=endState;fillColor=#000000;strokeColor=#000000;" vertex="1" parent="1">
          <mxGeometry x="520" y="350" width="60" height="60" as="geometry" />
        </mxCell>
      </root>
    </mxGraphModel>
  </diagram>
</mxfile>
